<?xml version="1.0" encoding="utf-8"?>
<!-- Generator: Adobe Illustrator 23.0.0, SVG Export Plug-In . SVG Version: 6.00 Build 0)  -->
<svg version="1.1" id="Layer_1" xmlns="http://www.w3.org/2000/svg" xmlns:xlink="http://www.w3.org/1999/xlink" x="0px" y="0px"
	 viewBox="0 0 121.4 155.08" style="enable-background:new 0 0 121.4 155.08;" xml:space="preserve">
<style type="text/css">
	.st0{fill:#fff;}
	.st1{fill:#fff;}
	.st2{fill:#fff;}
	.st3{fill:#fff;stroke:#FFFFFF;stroke-width:2.9177;stroke-miterlimit:10;}
</style>
<g>
	<path class="st0" d="M9.38,120.27c-0.86-0.52-1.53-1.23-2-2.12c-0.47-0.89-0.7-1.89-0.7-2.98c0-0.88,0.17-1.84,0.5-2.87l2.29,1.11
		c-0.15,0.64-0.23,1.24-0.23,1.79c0,0.69,0.13,1.3,0.38,1.83c0.25,0.54,0.62,0.96,1.09,1.26s1.03,0.46,1.66,0.46
		s1.18-0.15,1.66-0.46c0.48-0.3,0.84-0.73,1.09-1.27c0.25-0.54,0.38-1.15,0.38-1.84c0-0.51-0.06-1.06-0.19-1.64
		c-0.13-0.59-0.3-1.08-0.51-1.49l2.19-1.2c0.33,0.61,0.59,1.29,0.77,2.05s0.27,1.5,0.27,2.23c0,1.11-0.23,2.11-0.7,3.01
		c-0.47,0.9-1.13,1.61-1.99,2.13c-0.86,0.52-1.85,0.78-2.98,0.78C11.23,121.05,10.24,120.79,9.38,120.27z M11.36,109.57
		c-0.25-0.25-0.37-0.58-0.37-0.98s0.12-0.72,0.37-0.98s0.57-0.38,0.95-0.38c0.39,0,0.7,0.13,0.95,0.38s0.37,0.58,0.37,0.98
		s-0.12,0.72-0.37,0.98c-0.25,0.25-0.57,0.38-0.95,0.38C11.93,109.95,11.61,109.83,11.36,109.57z"/>
	<path class="st0" d="M20.4,105.18h2.55v12.42H20.4V105.18z"/>
	<path class="st0" d="M30.04,116.44c0,0.77-0.11,1.16-0.33,1.16h-1.76c-0.06,1.15-0.44,2.06-1.15,2.74
		c-0.71,0.67-1.66,1.03-2.83,1.08l-0.35-2.29c0.64,0.02,1.1-0.11,1.38-0.39c0.28-0.28,0.41-0.77,0.41-1.47v-8.04h2.55v6.07h1.74
		C29.93,115.29,30.04,115.67,30.04,116.44z"/>
	<path class="st0" d="M33.37,116.44c0,0.77-0.11,1.16-0.33,1.16h-3.33c-0.22,0-0.33-0.39-0.33-1.16c0-0.76,0.11-1.14,0.33-1.14h3.33
		C33.26,115.29,33.37,115.67,33.37,116.44z"/>
	<path class="st0" d="M36.7,116.44c0,0.77-0.11,1.16-0.33,1.16h-3.33c-0.22,0-0.33-0.39-0.33-1.16c0-0.76,0.11-1.14,0.33-1.14h3.33
		C36.59,115.29,36.7,115.67,36.7,116.44z"/>
	<path class="st0" d="M40.03,116.44c0,0.77-0.11,1.16-0.33,1.16h-3.33c-0.22,0-0.33-0.39-0.33-1.16c0-0.76,0.11-1.14,0.33-1.14h3.33
		C39.92,115.29,40.03,115.67,40.03,116.44z"/>
	<path class="st0" d="M53.1,116.44c0,0.77-0.11,1.16-0.33,1.16H52.6c-1.06,0-1.95-0.25-2.65-0.75c-0.7,0.24-1.41,0.43-2.15,0.56
		s-1.39,0.19-1.97,0.19c-1.09,0-2.16-0.23-3.2-0.7c-0.55,0.46-1.24,0.7-2.07,0.7H39.7c-0.22,0-0.33-0.39-0.33-1.16
		c0-0.76,0.11-1.14,0.33-1.14h0.23c0.33,0,0.59-0.08,0.77-0.23c0.18-0.16,0.3-0.39,0.36-0.71l0.05-0.33c0.11-0.82,0.28-1.6,0.5-2.34
		s0.62-1.43,1.2-2.06s1.38-0.94,2.4-0.94c0.88,0,1.71,0.25,2.48,0.76s1.42,1.21,1.94,2.12c0.52,0.9,0.87,1.91,1.05,3.04
		c0.14,0.24,0.33,0.42,0.56,0.53s0.54,0.17,0.93,0.17h0.6C52.99,115.29,53.1,115.67,53.1,116.44z M44.75,115.15
		c0.35,0.09,0.72,0.14,1.1,0.14c0.71,0,1.48-0.11,2.31-0.33c-0.12-0.72-0.33-1.38-0.63-2c-0.3-0.61-0.64-1.1-1.04-1.45
		c-0.39-0.35-0.79-0.53-1.19-0.53c-0.42,0-0.75,0.2-0.99,0.6s-0.4,0.84-0.49,1.33s-0.17,1.08-0.23,1.79
		C44.02,114.9,44.4,115.06,44.75,115.15z"/>
	<path class="st0" d="M64.91,116.44c0,0.77-0.11,1.16-0.33,1.16h-3.27c-1.22,0-2.34-0.2-3.38-0.61c-1.09,0.41-2.11,0.61-3.05,0.61
		h-2.11c-0.22,0-0.33-0.39-0.33-1.16c0-0.76,0.11-1.14,0.33-1.14h2.11l0.46-0.02c-0.73-0.77-1.28-1.7-1.66-2.77l2.12-3.5
		c0.82-0.21,1.63-0.31,2.42-0.31c0.98,0,1.86,0.13,2.62,0.4c0.76,0.27,1.35,0.64,1.78,1.13c0.42,0.49,0.63,1.04,0.63,1.66
		c0,0.6-0.19,1.19-0.58,1.77c-0.39,0.58-0.91,1.13-1.58,1.65h0.22h3.27C64.8,115.29,64.91,115.67,64.91,116.44z M58.09,114.41
		c0.75-0.36,1.38-0.78,1.87-1.24c0.5-0.46,0.75-0.87,0.75-1.24c0-0.26-0.22-0.49-0.67-0.67c-0.45-0.18-1.06-0.27-1.83-0.27
		c-0.79,0-1.52,0.12-2.21,0.36C56.36,112.71,57.05,113.73,58.09,114.41z"/>
	<path class="st0" d="M68.44,105.18v12.42h-3.86c-0.22,0-0.33-0.39-0.33-1.16c0-0.76,0.11-1.14,0.33-1.14h1.31v-10.12
		C65.89,105.18,68.44,105.18,68.44,105.18z"/>
	<path class="st0" d="M71.01,105.18h2.55v12.42h-2.55V105.18z"/>
	<path class="st0" d="M85.45,116.44c0,0.77-0.11,1.16-0.33,1.16h-1.76c-0.06,1.15-0.44,2.06-1.15,2.74
		c-0.71,0.67-1.66,1.03-2.83,1.08l-0.35-2.29c0.64,0.02,1.1-0.11,1.38-0.39s0.41-0.77,0.41-1.47v-8.04h2.55v6.07h1.74
		C85.34,115.29,85.45,115.67,85.45,116.44z"/>
	<path class="st0" d="M88.78,116.44c0,0.77-0.11,1.16-0.33,1.16h-3.33c-0.22,0-0.33-0.39-0.33-1.16c0-0.76,0.11-1.14,0.33-1.14h3.33
		C88.67,115.29,88.78,115.67,88.78,116.44z"/>
	<path class="st0" d="M92.12,116.44c0,0.77-0.11,1.16-0.33,1.16h-3.33c-0.22,0-0.33-0.39-0.33-1.16c0-0.76,0.11-1.14,0.33-1.14h3.33
		C92.01,115.29,92.12,115.67,92.12,116.44z"/>
	<path class="st0" d="M103.49,116.44c0,0.77-0.11,1.16-0.33,1.16H91.79c-0.22,0-0.33-0.39-0.33-1.16c0-0.76,0.11-1.14,0.33-1.14
		h6.67v-1.76c0-0.79-0.25-1.41-0.74-1.86c-0.49-0.46-1.15-0.69-1.98-0.69c-0.91,0-1.76,0.29-2.55,0.86l-1.11-2.14
		c0.54-0.33,1.13-0.59,1.75-0.76c0.62-0.18,1.26-0.27,1.91-0.27c1.01,0,1.91,0.21,2.71,0.62c0.8,0.42,1.43,0.99,1.88,1.73
		c0.45,0.74,0.68,1.58,0.68,2.5v1.76h2.16C103.38,115.29,103.49,115.67,103.49,116.44z M94.83,106.74
		c-0.25-0.25-0.37-0.58-0.37-0.98s0.12-0.72,0.37-0.98c0.25-0.25,0.57-0.38,0.95-0.38c0.39,0,0.7,0.13,0.95,0.38
		s0.37,0.58,0.37,0.98s-0.12,0.72-0.37,0.98c-0.25,0.25-0.57,0.38-0.95,0.38C95.39,107.12,95.08,106.99,94.83,106.74z"/>
	<path class="st0" d="M113.01,109.92v7.68h-9.85c-0.22,0-0.33-0.39-0.33-1.16c0-0.76,0.11-1.14,0.33-1.14h1.79
		c-0.32-0.59-0.48-1.24-0.48-1.97c0-0.84,0.21-1.6,0.64-2.28c0.42-0.68,1-1.22,1.72-1.61s1.52-0.59,2.4-0.59
		C110.39,108.84,111.65,109.2,113.01,109.92z M107.45,114.6c0.29,0.36,0.67,0.59,1.16,0.69h1.84v-3.95c-0.39-0.13-0.78-0.2-1.19-0.2
		c-0.65,0-1.19,0.2-1.61,0.61s-0.63,0.92-0.63,1.54C107.02,113.81,107.17,114.24,107.45,114.6z M108.27,107.13
		c-0.25-0.25-0.37-0.58-0.37-0.98s0.12-0.72,0.37-0.98c0.25-0.25,0.57-0.38,0.95-0.38c0.39,0,0.7,0.13,0.95,0.38
		s0.37,0.58,0.37,0.98s-0.12,0.72-0.37,0.98c-0.25,0.25-0.57,0.38-0.95,0.38C108.84,107.51,108.52,107.39,108.27,107.13z"/>
	<path class="st1" d="M14.88,129.69c0.03,0.06,0.04,0.16,0.04,0.3s-0.01,0.24-0.04,0.3s-0.08,0.1-0.17,0.1h-0.16
		c-0.43,0-0.78-0.06-1.05-0.18s-0.47-0.3-0.6-0.55c-0.26,0.12-0.53,0.21-0.82,0.28c-0.29,0.07-0.57,0.1-0.84,0.1
		c-0.5,0-0.95-0.11-1.37-0.34s-0.74-0.54-0.99-0.93c-0.24-0.39-0.36-0.82-0.36-1.29s0.12-0.9,0.37-1.29s0.58-0.7,0.99-0.93
		c0.42-0.23,0.87-0.34,1.37-0.34h1.42v-0.28h0.83v3.82c0,0.28,0.03,0.51,0.08,0.67c0.06,0.16,0.16,0.28,0.32,0.35
		c0.16,0.08,0.39,0.11,0.7,0.11h0.11C14.8,129.6,14.86,129.63,14.88,129.69z M12.7,128.87c-0.01-0.16-0.02-0.29-0.02-0.4v-2.76
		h-1.42c-0.35,0-0.67,0.08-0.96,0.23c-0.29,0.16-0.52,0.37-0.69,0.64c-0.17,0.27-0.25,0.57-0.25,0.89c0,0.33,0.08,0.62,0.25,0.89
		s0.4,0.48,0.69,0.64s0.61,0.24,0.97,0.24C11.72,129.26,12.19,129.13,12.7,128.87z M10.24,124.03c-0.1-0.1-0.15-0.23-0.15-0.39
		s0.05-0.28,0.15-0.38c0.1-0.1,0.22-0.15,0.37-0.15s0.27,0.05,0.37,0.15c0.1,0.1,0.15,0.23,0.15,0.38s-0.05,0.28-0.15,0.39
		c-0.1,0.1-0.22,0.16-0.37,0.16C10.46,124.18,10.33,124.13,10.24,124.03z M11.59,124.03c-0.1-0.1-0.15-0.23-0.15-0.39
		s0.05-0.28,0.15-0.38s0.22-0.15,0.37-0.15s0.27,0.05,0.37,0.15s0.15,0.23,0.15,0.38s-0.05,0.28-0.15,0.39
		c-0.1,0.1-0.22,0.16-0.37,0.16S11.69,124.13,11.59,124.03z"/>
	<path class="st1" d="M16.5,129.69c0.03,0.06,0.04,0.16,0.04,0.3s-0.01,0.24-0.04,0.3s-0.09,0.1-0.17,0.1h-1.62
		c-0.08,0-0.14-0.03-0.17-0.1c-0.03-0.06-0.04-0.16-0.04-0.3c0-0.13,0.01-0.23,0.04-0.3c0.03-0.06,0.09-0.1,0.17-0.1h1.62
		C16.42,129.6,16.48,129.63,16.5,129.69z"/>
	<path class="st1" d="M18.12,129.69c0.03,0.06,0.04,0.16,0.04,0.3s-0.01,0.24-0.04,0.3s-0.09,0.1-0.17,0.1h-1.62
		c-0.09,0-0.14-0.03-0.17-0.1c-0.03-0.06-0.04-0.16-0.04-0.3c0-0.13,0.01-0.23,0.04-0.3c0.03-0.06,0.08-0.1,0.17-0.1h1.62
		C18.04,129.6,18.09,129.63,18.12,129.69z"/>
	<path class="st1" d="M19.74,129.69c0.03,0.06,0.04,0.16,0.04,0.3s-0.01,0.24-0.04,0.3s-0.09,0.1-0.17,0.1h-1.62
		c-0.09,0-0.14-0.03-0.17-0.1c-0.03-0.06-0.04-0.16-0.04-0.3c0-0.13,0.01-0.23,0.04-0.3c0.03-0.06,0.08-0.1,0.17-0.1h1.62
		C19.66,129.6,19.71,129.63,19.74,129.69z"/>
	<path class="st1" d="M21.36,129.69c0.03,0.06,0.04,0.16,0.04,0.3s-0.01,0.24-0.04,0.3s-0.09,0.1-0.17,0.1h-1.62
		c-0.09,0-0.14-0.03-0.17-0.1c-0.03-0.06-0.04-0.16-0.04-0.3c0-0.13,0.01-0.23,0.04-0.3c0.03-0.06,0.08-0.1,0.17-0.1h1.62
		C21.28,129.6,21.33,129.63,21.36,129.69z"/>
	<path class="st1" d="M22.98,129.69c0.03,0.06,0.04,0.16,0.04,0.3s-0.01,0.24-0.04,0.3s-0.09,0.1-0.17,0.1h-1.62
		c-0.09,0-0.14-0.03-0.17-0.1c-0.03-0.06-0.04-0.16-0.04-0.3c0-0.13,0.01-0.23,0.04-0.3c0.03-0.06,0.08-0.1,0.17-0.1h1.62
		C22.9,129.6,22.96,129.63,22.98,129.69z"/>
	<path class="st1" d="M24.6,129.69c0.03,0.06,0.04,0.16,0.04,0.3s-0.01,0.24-0.04,0.3s-0.09,0.1-0.17,0.1h-1.62
		c-0.09,0-0.14-0.03-0.17-0.1c-0.03-0.06-0.04-0.16-0.04-0.3c0-0.13,0.01-0.23,0.04-0.3c0.03-0.06,0.08-0.1,0.17-0.1h1.62
		C24.52,129.6,24.58,129.63,24.6,129.69z"/>
	<path class="st1" d="M26.22,129.69c0.03,0.06,0.04,0.16,0.04,0.3s-0.01,0.24-0.04,0.3s-0.09,0.1-0.17,0.1h-1.62
		c-0.09,0-0.14-0.03-0.17-0.1c-0.03-0.06-0.04-0.16-0.04-0.3c0-0.13,0.01-0.23,0.04-0.3c0.03-0.06,0.08-0.1,0.17-0.1h1.62
		C26.14,129.6,26.19,129.63,26.22,129.69z"/>
	<path class="st1" d="M31.19,125.5c0.52,0.42,0.93,1,1.24,1.74s0.45,1.56,0.43,2.46c-0.49,0.22-1.02,0.39-1.58,0.51
		s-1.07,0.18-1.52,0.18c-0.73,0-1.45-0.17-2.15-0.52c-0.33,0.35-0.8,0.52-1.4,0.52h-0.16c-0.09,0-0.14-0.03-0.17-0.1
		c-0.03-0.06-0.04-0.16-0.04-0.3c0-0.13,0.01-0.23,0.04-0.3c0.03-0.06,0.08-0.1,0.17-0.1h0.16c0.31,0,0.56-0.08,0.75-0.23
		c0.18-0.15,0.3-0.38,0.34-0.68l0.03-0.28c0.06-0.55,0.14-1.08,0.27-1.57c0.12-0.49,0.34-0.94,0.66-1.35
		c0.32-0.41,0.76-0.62,1.32-0.62S30.68,125.09,31.19,125.5z M29.77,129.6c0.34,0,0.71-0.03,1.11-0.11c0.4-0.07,0.78-0.17,1.14-0.31
		c-0.04-0.62-0.18-1.2-0.42-1.74s-0.53-0.97-0.89-1.29c-0.35-0.32-0.72-0.48-1.09-0.48c-0.36,0-0.63,0.15-0.84,0.45
		c-0.2,0.3-0.34,0.64-0.42,1.02s-0.14,0.81-0.19,1.3c0-0.02-0.01,0.1-0.04,0.37c-0.02,0.14-0.05,0.26-0.1,0.38
		C28.6,129.46,29.18,129.6,29.77,129.6z"/>
	<path class="st1" d="M36.4,129.69c0.03,0.06,0.04,0.16,0.04,0.3s-0.01,0.24-0.04,0.3c-0.03,0.06-0.09,0.1-0.17,0.1h-1.97v-7.81
		h0.83v7.02h1.14C36.32,129.6,36.37,129.63,36.4,129.69z"/>
	<path class="st1" d="M43.84,129.69c0.03,0.06,0.04,0.16,0.04,0.3s-0.01,0.24-0.04,0.3c-0.03,0.06-0.09,0.1-0.17,0.1h-1.8
		c-0.8,0-1.53-0.14-2.19-0.43c-0.76,0.28-1.42,0.43-1.97,0.43h-1.48c-0.09,0-0.14-0.03-0.17-0.1c-0.03-0.06-0.04-0.16-0.04-0.3
		c0-0.13,0.01-0.23,0.04-0.3c0.03-0.06,0.08-0.1,0.17-0.1h1.48c0.32,0,0.67-0.05,1.05-0.15c-0.46-0.33-0.84-0.74-1.15-1.23
		c-0.31-0.49-0.51-1.03-0.63-1.63l0.7-1.24c0.71-0.26,1.43-0.4,2.17-0.4c0.6,0,1.13,0.08,1.59,0.24c0.46,0.16,0.81,0.38,1.07,0.66
		c0.26,0.28,0.38,0.61,0.38,0.99c0,0.48-0.2,0.96-0.61,1.41c-0.4,0.46-0.93,0.86-1.57,1.21c0.36,0.09,0.73,0.13,1.13,0.13h1.8
		C43.76,129.6,43.82,129.63,43.84,129.69z M38.43,127.93c0.34,0.5,0.78,0.89,1.31,1.16c0.65-0.29,1.21-0.64,1.66-1.05
		c0.45-0.41,0.68-0.8,0.68-1.18c0-0.35-0.2-0.62-0.61-0.82s-0.94-0.3-1.61-0.3c-0.39,0-0.76,0.04-1.1,0.11s-0.68,0.18-1.01,0.33
		C37.86,126.86,38.09,127.44,38.43,127.93z"/>
	<path class="st1" d="M45.4,122.57v7.81h-1.73c-0.09,0-0.14-0.03-0.17-0.1c-0.03-0.06-0.04-0.16-0.04-0.3c0-0.13,0.01-0.23,0.04-0.3
		c0.03-0.06,0.08-0.1,0.17-0.1h0.89v-7.02h0.84V122.57z"/>
	<path class="st1" d="M47.25,122.57h0.83v7.81h-0.83V122.57z"/>
	<path class="st1" d="M60.13,125.39v5l-5.71,0.01c-0.72,0-1.27-0.19-1.66-0.58c-0.39-0.38-0.59-0.91-0.59-1.59
		c0-0.45,0.09-0.85,0.27-1.19c0.18-0.34,0.44-0.64,0.79-0.91l0.67,0.48c-0.31,0.25-0.54,0.5-0.69,0.76
		c-0.15,0.25-0.22,0.54-0.22,0.85c0,0.43,0.13,0.76,0.38,1.01s0.62,0.37,1.1,0.37h4.82v-4.21
		C59.29,125.39,60.13,125.39,60.13,125.39z M55.28,124.47c-0.1-0.1-0.15-0.23-0.15-0.39c0-0.16,0.05-0.28,0.15-0.38
		c0.1-0.1,0.22-0.15,0.37-0.15c0.15,0,0.27,0.05,0.37,0.15s0.15,0.23,0.15,0.38c0,0.15-0.05,0.28-0.15,0.39
		c-0.1,0.1-0.22,0.16-0.37,0.16C55.5,124.63,55.38,124.58,55.28,124.47z M56.64,124.47c-0.1-0.1-0.15-0.23-0.15-0.39
		c0-0.16,0.05-0.28,0.15-0.38c0.1-0.1,0.22-0.15,0.37-0.15c0.15,0,0.27,0.05,0.37,0.15s0.14,0.23,0.14,0.38
		c0,0.15-0.05,0.28-0.14,0.39c-0.1,0.1-0.22,0.16-0.37,0.16C56.86,124.63,56.73,124.58,56.64,124.47z"/>
	<path class="st1" d="M66.61,122.57v7.81h-5.27v-0.79h1.44v-5.52h0.83v5.52h2.16v-7.02L66.61,122.57L66.61,122.57z"/>
	<path class="st1" d="M72.89,125.58v4.94c0,0.71-0.18,1.26-0.55,1.65s-0.88,0.59-1.53,0.6l-0.14-0.8c0.48,0.02,0.83-0.09,1.05-0.32
		c0.22-0.23,0.33-0.61,0.33-1.13v-0.35c-0.46,0.15-0.91,0.22-1.34,0.22c-0.53,0-1.01-0.12-1.45-0.36s-0.79-0.57-1.05-0.99
		s-0.39-0.87-0.39-1.37c0-0.5,0.13-0.95,0.39-1.37c0.26-0.41,0.61-0.74,1.05-0.98s0.92-0.36,1.45-0.36c0.33,0,0.69,0.05,1.06,0.16
		c0.37,0.11,0.72,0.25,1.06,0.44L72.89,125.58z M72.06,129.32v-3.25c-0.5-0.21-0.94-0.32-1.32-0.32c-0.4,0-0.76,0.09-1.07,0.26
		c-0.32,0.17-0.56,0.41-0.74,0.7c-0.18,0.29-0.27,0.61-0.27,0.96c0,0.35,0.09,0.67,0.27,0.96s0.42,0.53,0.74,0.7
		c0.31,0.17,0.67,0.26,1.07,0.26C71.13,129.6,71.57,129.51,72.06,129.32z"/>
	<path class="st1" d="M76.67,129.69c0.03,0.06,0.04,0.16,0.04,0.3s-0.01,0.24-0.04,0.3s-0.09,0.1-0.17,0.1h-1.97v-7.81h0.83v7.02
		h1.14C76.59,129.6,76.64,129.63,76.67,129.69z"/>
	<path class="st1" d="M78.3,129.69c0.03,0.06,0.04,0.16,0.04,0.3s-0.01,0.24-0.04,0.3s-0.09,0.1-0.17,0.1H76.5
		c-0.09,0-0.14-0.03-0.17-0.1c-0.03-0.06-0.04-0.16-0.04-0.3c0-0.13,0.01-0.23,0.04-0.3c0.03-0.06,0.08-0.1,0.17-0.1h1.62
		C78.21,129.6,78.27,129.63,78.3,129.69z"/>
	<path class="st1" d="M79.91,129.69c0.03,0.06,0.04,0.16,0.04,0.3s-0.01,0.24-0.04,0.3s-0.09,0.1-0.17,0.1h-1.62
		c-0.09,0-0.14-0.03-0.17-0.1c-0.03-0.06-0.04-0.16-0.04-0.3c0-0.13,0.01-0.23,0.04-0.3c0.03-0.06,0.08-0.1,0.17-0.1h1.62
		C79.83,129.6,79.89,129.63,79.91,129.69z"/>
	<path class="st1" d="M81.54,129.69c0.03,0.06,0.04,0.16,0.04,0.3s-0.01,0.24-0.04,0.3s-0.09,0.1-0.17,0.1h-1.62
		c-0.09,0-0.14-0.03-0.17-0.1c-0.03-0.06-0.04-0.16-0.04-0.3c0-0.13,0.01-0.23,0.04-0.3c0.03-0.06,0.08-0.1,0.17-0.1h1.62
		C81.45,129.6,81.51,129.63,81.54,129.69z"/>
	<path class="st1" d="M83.16,129.69c0.03,0.06,0.04,0.16,0.04,0.3s-0.01,0.24-0.04,0.3s-0.09,0.1-0.17,0.1h-1.62
		c-0.09,0-0.14-0.03-0.17-0.1c-0.03-0.06-0.04-0.16-0.04-0.3c0-0.13,0.01-0.23,0.04-0.3c0.03-0.06,0.08-0.1,0.17-0.1h1.62
		C83.07,129.6,83.13,129.63,83.16,129.69z"/>
	<path class="st1" d="M84.78,129.69c0.03,0.06,0.04,0.16,0.04,0.3s-0.01,0.24-0.04,0.3s-0.09,0.1-0.17,0.1h-1.62
		c-0.09,0-0.14-0.03-0.17-0.1c-0.03-0.06-0.04-0.16-0.04-0.3c0-0.13,0.01-0.23,0.04-0.3c0.03-0.06,0.08-0.1,0.17-0.1h1.62
		C84.69,129.6,84.75,129.63,84.78,129.69z"/>
	<path class="st1" d="M86.4,129.69c0.03,0.06,0.04,0.16,0.04,0.3s-0.01,0.24-0.04,0.3s-0.09,0.1-0.17,0.1H84.6
		c-0.09,0-0.14-0.03-0.17-0.1c-0.03-0.06-0.04-0.16-0.04-0.3c0-0.13,0.01-0.23,0.04-0.3c0.03-0.06,0.08-0.1,0.17-0.1h1.62
		C86.31,129.6,86.37,129.63,86.4,129.69z"/>
	<path class="st1" d="M88.02,129.69c0.03,0.06,0.04,0.16,0.04,0.3s-0.01,0.24-0.04,0.3s-0.09,0.1-0.17,0.1h-1.62
		c-0.09,0-0.14-0.03-0.17-0.1c-0.03-0.06-0.04-0.16-0.04-0.3c0-0.13,0.01-0.23,0.04-0.3c0.03-0.06,0.08-0.1,0.17-0.1h1.62
		C87.93,129.6,87.99,129.63,88.02,129.69z"/>
	<path class="st1" d="M89.64,129.69c0.03,0.06,0.04,0.16,0.04,0.3s-0.01,0.24-0.04,0.3s-0.09,0.1-0.17,0.1h-1.62
		c-0.09,0-0.14-0.03-0.17-0.1c-0.03-0.06-0.04-0.16-0.04-0.3c0-0.13,0.01-0.23,0.04-0.3c0.03-0.06,0.08-0.1,0.17-0.1h1.62
		C89.55,129.6,89.61,129.63,89.64,129.69z"/>
	<path class="st1" d="M91.26,129.69c0.03,0.06,0.04,0.16,0.04,0.3s-0.01,0.24-0.04,0.3s-0.09,0.1-0.17,0.1h-1.62
		c-0.09,0-0.14-0.03-0.17-0.1c-0.03-0.06-0.04-0.16-0.04-0.3c0-0.13,0.01-0.23,0.04-0.3c0.03-0.06,0.08-0.1,0.17-0.1h1.62
		C91.17,129.6,91.23,129.63,91.26,129.69z"/>
	<path class="st1" d="M92.88,129.69c0.03,0.06,0.04,0.16,0.04,0.3s-0.01,0.24-0.04,0.3s-0.09,0.1-0.17,0.1h-1.62
		c-0.09,0-0.14-0.03-0.17-0.1c-0.03-0.06-0.04-0.16-0.04-0.3c0-0.13,0.01-0.23,0.04-0.3c0.03-0.06,0.08-0.1,0.17-0.1h1.62
		C92.79,129.6,92.85,129.63,92.88,129.69z"/>
	<path class="st1" d="M100.05,129.69c0.03,0.06,0.04,0.16,0.04,0.3s-0.01,0.24-0.04,0.3s-0.09,0.1-0.17,0.1h-7.17
		c-0.09,0-0.14-0.03-0.17-0.1c-0.03-0.06-0.04-0.16-0.04-0.3c0-0.13,0.01-0.23,0.04-0.3c0.03-0.06,0.08-0.1,0.17-0.1h1.64
		c-0.48-0.51-0.71-1.12-0.71-1.82c0-0.53,0.13-1.01,0.39-1.44s0.62-0.76,1.08-1.01s0.95-0.37,1.49-0.37c0.63,0,1.33,0.18,2.08,0.52
		v4.11h1.2C99.96,129.6,100.02,129.63,100.05,129.69z M94.84,128.93c0.25,0.33,0.59,0.55,1.02,0.67h1.98V126
		c-0.45-0.16-0.87-0.25-1.25-0.25c-0.4,0-0.77,0.09-1.1,0.27s-0.58,0.42-0.76,0.72c-0.18,0.31-0.27,0.65-0.27,1.02
		C94.46,128.21,94.59,128.6,94.84,128.93z M95.56,123.92c-0.1-0.1-0.15-0.23-0.15-0.39s0.05-0.28,0.15-0.38s0.22-0.15,0.37-0.15
		s0.27,0.05,0.37,0.15c0.1,0.1,0.15,0.23,0.15,0.38s-0.05,0.28-0.15,0.39c-0.1,0.1-0.22,0.16-0.37,0.16
		C95.78,124.07,95.66,124.02,95.56,123.92z M96.92,123.92c-0.1-0.1-0.15-0.23-0.15-0.39s0.05-0.28,0.15-0.38s0.22-0.15,0.37-0.15
		s0.27,0.05,0.37,0.15c0.1,0.1,0.14,0.23,0.14,0.38s-0.05,0.28-0.14,0.39c-0.1,0.1-0.22,0.16-0.37,0.16
		C97.14,124.07,97.02,124.02,96.92,123.92z"/>
	<path class="st1" d="M108.37,129.69c0.03,0.06,0.04,0.16,0.04,0.3s-0.01,0.24-0.04,0.3s-0.09,0.1-0.17,0.1h-0.13
		c-0.7,0-1.25-0.19-1.63-0.58c-0.47,0.18-0.96,0.33-1.47,0.43c-0.51,0.1-0.97,0.15-1.39,0.15c-0.73,0-1.45-0.17-2.15-0.52
		c-0.33,0.35-0.8,0.52-1.4,0.52h-0.16c-0.09,0-0.14-0.03-0.17-0.1c-0.03-0.06-0.04-0.16-0.04-0.3c0-0.13,0.01-0.23,0.04-0.3
		c0.03-0.06,0.08-0.1,0.17-0.1h0.16c0.31,0,0.56-0.08,0.75-0.23c0.18-0.15,0.3-0.38,0.34-0.68l0.03-0.28
		c0.06-0.55,0.14-1.08,0.27-1.57c0.12-0.49,0.34-0.94,0.66-1.35c0.32-0.41,0.76-0.62,1.32-0.62c0.52,0,1.02,0.18,1.5,0.54
		s0.88,0.86,1.2,1.49c0.32,0.64,0.51,1.35,0.57,2.15c0.26,0.36,0.66,0.54,1.2,0.54h0.33C108.29,129.6,108.34,129.63,108.37,129.69z
		 M103.6,129.6c0.34,0,0.71-0.03,1.11-0.11c0.4-0.07,0.78-0.17,1.14-0.31c-0.04-0.62-0.18-1.2-0.42-1.74s-0.53-0.97-0.89-1.29
		c-0.35-0.32-0.72-0.48-1.09-0.48c-0.36,0-0.63,0.15-0.84,0.45c-0.2,0.3-0.34,0.64-0.42,1.02s-0.14,0.81-0.19,1.3
		c0-0.02-0.01,0.1-0.04,0.37c-0.02,0.14-0.05,0.26-0.1,0.38C102.43,129.46,103.01,129.6,103.6,129.6z"/>
	<path class="st1" d="M111.22,129.69c0.03,0.06,0.04,0.16,0.04,0.3s-0.01,0.24-0.04,0.3s-0.08,0.1-0.17,0.1h-2.85
		c-0.09,0-0.14-0.03-0.17-0.1c-0.03-0.06-0.04-0.16-0.04-0.3c0-0.13,0.01-0.23,0.04-0.3c0.03-0.06,0.08-0.1,0.17-0.1h0.89v-7.02
		h0.83v7.02h1.12C111.14,129.6,111.19,129.63,111.22,129.69z"/>
	<path class="st1" d="M112.78,122.57v7.81h-1.73c-0.09,0-0.14-0.03-0.17-0.1c-0.03-0.06-0.04-0.16-0.04-0.3
		c0-0.13,0.01-0.23,0.04-0.3c0.03-0.06,0.08-0.1,0.17-0.1h0.89v-7.02h0.84V122.57z"/>
</g>
<g>
	<g>
		<g>
			<path id="SVGID_3_" class="st2" d="M83.26,78.39l6.54,3.73v11.36l-0.02,0.01v3.04l0.02-0.01v1.45h-1.03V82.8l-4.48-2.56v17.73
				h-1.03V78.39z M61.05,82.02V53.68l-3.71,2.12v9.08l-4,2.28V87.9L61.05,82.02z M79.01,68.47l10.8-6.24V49.5l-12.69-6.92
				L64.43,49.5v2.05l12.69-6.92v1.48l-11.01,6.11v-0.03l-1.68,0.93v2.6l12.69-7.06v1.64l-12.69,7.06v2.57l12.69-7.06v1.64
				l-12.69,7.06v2.57l12.69-7.06v1.64l-12.69,7.06v2.57l12.69-7.06v1.64l-12.69,7.06v9.46l1.26-0.96l13.32,10.17V68.47z
				 M68.15,83.77l-2.46-1.88l-12.35,9.43v-1.36l12.35-9.42L79.01,90.7v1.36L68.15,83.77z M65.89,91.21v2.2h2.19v-2.2H65.89z
				 M63.3,91.21v2.2h2.19v-2.2H63.3z M65.89,93.81V96h2.19v-2.19H65.89z M63.3,93.81V96h2.19v-2.19H63.3z M53.34,97.96v-4.58
				l12.35-9.42l13.32,10.17v3.84L53.34,97.96L53.34,97.96z M92.44,62.62l-11.81,6.74v20.51l0.03,0.02v5.48l-0.03-0.02v2.61h1.86
				V70.59l8.1-4.62v31.99h1.86V62.62H92.44z M60.39,18.81c-19.69,0-33.15,15.87-33.15,40.08c0,19.42,8.79,33.7,23.14,37.84v-11.2
				c-7.15-4.94-10.89-15.6-10.89-26.94c0-15.07,6.33-30.23,20.49-30.23c7.16,0,12.33,4.08,15.65,10.05l15.82,8.63
				C88.26,30.42,77.35,18.81,60.39,18.81z"/>
		</g>
	</g>
	<rect x="35.98" y="53.97" class="st2" width="18.1" height="9.71"/>
	
		<rect x="51.42" y="11.1" transform="matrix(0.7071 -0.7071 0.7071 0.7071 4.1491 47.0065)" class="st3" width="14.79" height="14.79"/>
</g>
</svg>
