<?xml version="1.0" encoding="utf-8"?>
<!-- Generator: Adobe Illustrator 23.0.0, SVG Export Plug-In . SVG Version: 6.00 Build 0)  -->
<svg version="1.1" id="Layer_1" xmlns="http://www.w3.org/2000/svg" xmlns:xlink="http://www.w3.org/1999/xlink" x="0px" y="0px"
	 viewBox="0 0 279.19 107.59" style="enable-background:new 0 0 279.19 107.59;" xml:space="preserve">
<style type="text/css">
	.st0{fill:#58595B;}
	.st1{fill:#808285;}
	.st2{fill:#D95F5C;}
	.st3{fill:#FBB040;stroke:#FFFFFF;stroke-width:2.9177;stroke-miterlimit:10;}
</style>
<g>
	<path class="st0" d="M29.78,81.09c-0.93-0.56-1.65-1.33-2.16-2.3s-0.76-2.05-0.76-3.23c0-0.96,0.18-1.99,0.54-3.11l2.48,1.2
		c-0.17,0.69-0.25,1.34-0.25,1.94c0,0.74,0.14,1.4,0.41,1.98c0.28,0.58,0.67,1.04,1.18,1.37s1.11,0.49,1.8,0.49
		c0.68,0,1.28-0.16,1.8-0.49c0.52-0.33,0.91-0.79,1.18-1.37c0.27-0.59,0.41-1.25,0.41-1.99c0-0.55-0.07-1.14-0.21-1.78
		c-0.14-0.63-0.32-1.17-0.55-1.61l2.37-1.29c0.36,0.66,0.63,1.4,0.83,2.22s0.3,1.62,0.3,2.42c0,1.2-0.25,2.28-0.76,3.26
		s-1.23,1.75-2.16,2.31s-2,0.84-3.22,0.84C31.79,81.93,30.71,81.65,29.78,81.09z M31.92,69.51c-0.27-0.28-0.4-0.63-0.4-1.06
		s0.13-0.78,0.4-1.06c0.27-0.28,0.61-0.41,1.03-0.41c0.42,0,0.76,0.14,1.03,0.41c0.27,0.28,0.41,0.63,0.41,1.06
		s-0.13,0.78-0.41,1.06c-0.27,0.28-0.61,0.41-1.03,0.41C32.54,69.92,32.19,69.78,31.92,69.51z"/>
	<path class="st0" d="M41.72,64.75h2.76V78.2h-2.76V64.75z"/>
	<path class="st0" d="M52.15,76.94c0,0.84-0.12,1.26-0.36,1.26h-1.9c-0.06,1.24-0.48,2.23-1.25,2.96c-0.77,0.73-1.79,1.12-3.06,1.17
		l-0.38-2.48c0.69,0.02,1.19-0.12,1.49-0.42c0.3-0.31,0.45-0.84,0.45-1.59v-8.71h2.77v6.57h1.88C52.03,75.7,52.15,76.11,52.15,76.94
		z"/>
	<path class="st0" d="M55.76,76.94c0,0.84-0.12,1.26-0.36,1.26h-3.61c-0.24,0-0.36-0.42-0.36-1.26c0-0.83,0.12-1.24,0.36-1.24h3.61
		C55.64,75.7,55.76,76.11,55.76,76.94z"/>
	<path class="st0" d="M59.36,76.94c0,0.84-0.12,1.26-0.36,1.26h-3.6c-0.24,0-0.36-0.42-0.36-1.26c0-0.83,0.12-1.24,0.36-1.24h3.61
		C59.25,75.7,59.36,76.11,59.36,76.94z"/>
	<path class="st0" d="M62.97,76.94c0,0.84-0.12,1.26-0.36,1.26H59c-0.24,0-0.36-0.42-0.36-1.26c0-0.83,0.12-1.24,0.36-1.24h3.61
		C62.85,75.7,62.97,76.11,62.97,76.94z"/>
	<path class="st0" d="M77.12,76.94c0,0.84-0.12,1.26-0.36,1.26h-0.18c-1.15,0-2.11-0.27-2.87-0.81c-0.75,0.26-1.53,0.46-2.32,0.6
		c-0.8,0.14-1.51,0.21-2.13,0.21c-1.18,0-2.34-0.25-3.46-0.75c-0.6,0.5-1.35,0.75-2.25,0.75h-0.93c-0.24,0-0.36-0.42-0.36-1.26
		c0-0.83,0.12-1.24,0.36-1.24h0.25c0.36,0,0.64-0.09,0.83-0.25c0.2-0.17,0.33-0.43,0.39-0.77l0.05-0.36
		c0.12-0.89,0.3-1.73,0.54-2.53c0.24-0.8,0.67-1.55,1.3-2.23c0.63-0.68,1.49-1.02,2.59-1.02c0.96,0,1.85,0.28,2.68,0.82
		c0.83,0.55,1.53,1.31,2.1,2.29c0.57,0.97,0.95,2.07,1.14,3.29c0.15,0.26,0.36,0.46,0.61,0.57s0.59,0.18,1,0.18h0.65
		C77,75.7,77.12,76.11,77.12,76.94z M68.08,75.55c0.38,0.1,0.77,0.15,1.19,0.15c0.77,0,1.6-0.12,2.5-0.36
		c-0.13-0.78-0.36-1.5-0.68-2.16c-0.32-0.67-0.7-1.19-1.12-1.57c-0.42-0.38-0.85-0.57-1.28-0.57c-0.45,0-0.81,0.22-1.07,0.65
		s-0.43,0.91-0.53,1.44s-0.18,1.17-0.25,1.94C67.29,75.28,67.71,75.45,68.08,75.55z"/>
	<path class="st0" d="M89.9,76.94c0,0.84-0.12,1.26-0.36,1.26H86c-1.32,0-2.54-0.22-3.66-0.66c-1.18,0.44-2.29,0.66-3.3,0.66h-2.28
		c-0.24,0-0.36-0.42-0.36-1.26c0-0.83,0.12-1.24,0.36-1.24h2.28l0.5-0.02c-0.79-0.84-1.39-1.84-1.8-3l2.3-3.79
		c0.89-0.23,1.76-0.34,2.62-0.34c1.06,0,2.01,0.14,2.84,0.43c0.83,0.29,1.47,0.69,1.92,1.22s0.68,1.13,0.68,1.8
		c0,0.65-0.21,1.28-0.63,1.91c-0.42,0.63-0.99,1.22-1.71,1.79h0.23h3.54C89.79,75.7,89.9,76.11,89.9,76.94z M82.53,74.75
		c0.81-0.39,1.49-0.84,2.03-1.34s0.81-0.94,0.81-1.34c0-0.29-0.24-0.53-0.73-0.73c-0.49-0.2-1.15-0.3-1.98-0.3
		c-0.85,0-1.65,0.13-2.39,0.39C80.65,72.9,81.4,74.01,82.53,74.75z"/>
	<path class="st0" d="M93.73,64.75V78.2h-4.18c-0.24,0-0.36-0.42-0.36-1.26c0-0.83,0.12-1.24,0.36-1.24h1.42V64.75H93.73z"/>
	<path class="st0" d="M96.51,64.75h2.76V78.2h-2.76V64.75z"/>
	<path class="st0" d="M112.15,76.94c0,0.84-0.12,1.26-0.36,1.26h-1.9c-0.06,1.24-0.48,2.23-1.25,2.96
		c-0.77,0.73-1.79,1.12-3.06,1.17l-0.38-2.48c0.69,0.02,1.19-0.12,1.49-0.42c0.3-0.31,0.45-0.84,0.45-1.59v-8.71h2.77v6.57h1.88
		C112.03,75.7,112.15,76.11,112.15,76.94z"/>
	<path class="st0" d="M115.76,76.94c0,0.84-0.12,1.26-0.36,1.26h-3.61c-0.24,0-0.36-0.42-0.36-1.26c0-0.83,0.12-1.24,0.36-1.24h3.61
		C115.64,75.7,115.76,76.11,115.76,76.94z"/>
	<path class="st0" d="M119.37,76.94c0,0.84-0.12,1.26-0.36,1.26h-3.61c-0.24,0-0.36-0.42-0.36-1.26c0-0.83,0.12-1.24,0.36-1.24h3.61
		C119.25,75.7,119.37,76.11,119.37,76.94z"/>
	<path class="st0" d="M131.68,76.94c0,0.84-0.12,1.26-0.36,1.26H119c-0.24,0-0.36-0.42-0.36-1.26c0-0.83,0.12-1.24,0.36-1.24h7.22
		v-1.9c0-0.85-0.27-1.52-0.8-2.02c-0.53-0.5-1.25-0.75-2.15-0.75c-0.98,0-1.9,0.31-2.76,0.93l-1.2-2.32
		c0.59-0.36,1.22-0.63,1.89-0.82c0.68-0.19,1.37-0.29,2.07-0.29c1.09,0,2.07,0.22,2.94,0.67s1.55,1.08,2.04,1.88
		c0.49,0.8,0.74,1.71,0.74,2.71v1.9h2.33C131.56,75.7,131.68,76.11,131.68,76.94z M122.3,66.44c-0.27-0.28-0.4-0.63-0.4-1.06
		s0.13-0.78,0.4-1.06c0.27-0.27,0.61-0.41,1.03-0.41s0.76,0.14,1.03,0.41c0.27,0.28,0.4,0.63,0.4,1.06s-0.13,0.78-0.4,1.06
		c-0.27,0.28-0.61,0.41-1.03,0.41C122.91,66.85,122.57,66.71,122.3,66.44z"/>
	<path class="st0" d="M141.99,69.88v8.31h-10.66c-0.24,0-0.36-0.42-0.36-1.26c0-0.83,0.12-1.24,0.36-1.24h1.94
		c-0.35-0.63-0.52-1.35-0.52-2.14c0-0.91,0.23-1.73,0.69-2.47s1.08-1.32,1.87-1.74c0.78-0.42,1.65-0.64,2.59-0.64
		C139.15,68.72,140.51,69.11,141.99,69.88z M135.97,74.96c0.31,0.39,0.73,0.64,1.26,0.75h1.99v-4.27c-0.42-0.14-0.85-0.21-1.29-0.21
		c-0.71,0-1.29,0.22-1.74,0.66c-0.45,0.44-0.68,1-0.68,1.67C135.51,74.1,135.66,74.57,135.97,74.96z M136.86,66.87
		c-0.27-0.28-0.4-0.63-0.4-1.06s0.13-0.78,0.4-1.06c0.27-0.28,0.61-0.41,1.03-0.41s0.76,0.14,1.03,0.41c0.27,0.28,0.4,0.63,0.4,1.06
		s-0.13,0.78-0.4,1.06c-0.27,0.28-0.61,0.41-1.03,0.41C137.48,67.28,137.13,67.14,136.86,66.87z"/>
	<path class="st1" d="M35.74,91.29c0.03,0.07,0.05,0.18,0.05,0.32c0,0.15-0.02,0.26-0.05,0.32c-0.03,0.07-0.09,0.1-0.18,0.1h-0.17
		c-0.47,0-0.85-0.06-1.14-0.19c-0.29-0.13-0.51-0.32-0.65-0.59c-0.28,0.13-0.57,0.23-0.88,0.31c-0.31,0.07-0.61,0.11-0.91,0.11
		c-0.54,0-1.03-0.12-1.48-0.37c-0.45-0.25-0.81-0.58-1.07-1s-0.39-0.89-0.39-1.4s0.13-0.97,0.4-1.4c0.27-0.42,0.62-0.76,1.07-1
		c0.45-0.25,0.94-0.37,1.48-0.37h1.53v-0.3h0.9v4.13c0,0.31,0.03,0.55,0.09,0.72s0.18,0.3,0.34,0.38c0.17,0.08,0.42,0.12,0.75,0.12
		h0.11C35.65,91.19,35.71,91.22,35.74,91.29z M33.37,90.41c-0.02-0.17-0.02-0.31-0.02-0.43v-2.99h-1.53c-0.38,0-0.72,0.09-1.04,0.25
		c-0.32,0.17-0.56,0.4-0.75,0.69c-0.18,0.29-0.27,0.61-0.27,0.97c0,0.35,0.09,0.68,0.27,0.97s0.43,0.52,0.75,0.69
		c0.32,0.17,0.66,0.26,1.05,0.26C32.31,90.82,32.83,90.68,33.37,90.41z M30.71,85.16c-0.11-0.11-0.16-0.25-0.16-0.42
		s0.05-0.31,0.16-0.41c0.11-0.11,0.24-0.16,0.4-0.16s0.29,0.05,0.4,0.16c0.11,0.11,0.16,0.25,0.16,0.41c0,0.17-0.05,0.31-0.16,0.42
		s-0.24,0.17-0.4,0.17C30.95,85.33,30.81,85.27,30.71,85.16z M32.18,85.16c-0.11-0.11-0.16-0.25-0.16-0.42s0.05-0.31,0.16-0.41
		s0.24-0.16,0.4-0.16s0.29,0.05,0.4,0.16s0.16,0.25,0.16,0.41c0,0.17-0.05,0.31-0.16,0.42s-0.24,0.17-0.4,0.17
		C32.41,85.33,32.28,85.27,32.18,85.16z"/>
	<path class="st1" d="M37.5,91.29c0.03,0.07,0.05,0.18,0.05,0.32c0,0.15-0.02,0.26-0.05,0.32c-0.03,0.07-0.09,0.1-0.19,0.1h-1.75
		c-0.09,0-0.15-0.03-0.18-0.1s-0.05-0.18-0.05-0.32s0.02-0.25,0.05-0.32s0.09-0.1,0.18-0.1h1.75C37.4,91.19,37.46,91.22,37.5,91.29z
		"/>
	<path class="st1" d="M39.25,91.29c0.03,0.07,0.05,0.18,0.05,0.32c0,0.15-0.02,0.26-0.05,0.32c-0.03,0.07-0.09,0.1-0.19,0.1h-1.75
		c-0.09,0-0.15-0.03-0.18-0.1s-0.05-0.18-0.05-0.32s0.01-0.25,0.05-0.32c0.03-0.07,0.09-0.1,0.18-0.1h1.75
		C39.16,91.19,39.22,91.22,39.25,91.29z"/>
	<path class="st1" d="M41,91.29c0.03,0.07,0.05,0.18,0.05,0.32c0,0.15-0.02,0.26-0.05,0.32c-0.03,0.07-0.09,0.1-0.19,0.1h-1.75
		c-0.09,0-0.15-0.03-0.18-0.1s-0.05-0.18-0.05-0.32s0.01-0.25,0.05-0.32c0.03-0.07,0.09-0.1,0.18-0.1h1.75
		C40.91,91.19,40.97,91.22,41,91.29z"/>
	<path class="st1" d="M42.76,91.29c0.03,0.07,0.05,0.18,0.05,0.32c0,0.15-0.02,0.26-0.05,0.32c-0.03,0.07-0.09,0.1-0.19,0.1h-1.75
		c-0.09,0-0.15-0.03-0.18-0.1s-0.05-0.18-0.05-0.32s0.01-0.25,0.05-0.32c0.03-0.07,0.09-0.1,0.18-0.1h1.75
		C42.66,91.19,42.73,91.22,42.76,91.29z"/>
	<path class="st1" d="M44.51,91.29c0.03,0.07,0.05,0.18,0.05,0.32c0,0.15-0.02,0.26-0.05,0.32c-0.03,0.07-0.09,0.1-0.19,0.1h-1.75
		c-0.09,0-0.15-0.03-0.18-0.1s-0.05-0.18-0.05-0.32s0.01-0.25,0.05-0.32c0.03-0.07,0.09-0.1,0.18-0.1h1.75
		C44.42,91.19,44.48,91.22,44.51,91.29z"/>
	<path class="st1" d="M46.27,91.29c0.03,0.07,0.05,0.18,0.05,0.32c0,0.15-0.02,0.26-0.05,0.32c-0.03,0.07-0.09,0.1-0.19,0.1h-1.75
		c-0.09,0-0.15-0.03-0.18-0.1s-0.05-0.18-0.05-0.32s0.01-0.25,0.05-0.32c0.03-0.07,0.09-0.1,0.18-0.1h1.75
		C46.17,91.19,46.23,91.22,46.27,91.29z"/>
	<path class="st1" d="M48.02,91.29c0.03,0.07,0.05,0.18,0.05,0.32c0,0.15-0.02,0.26-0.05,0.32c-0.03,0.07-0.09,0.1-0.19,0.1h-1.75
		c-0.09,0-0.15-0.03-0.18-0.1s-0.05-0.18-0.05-0.32s0.01-0.25,0.05-0.32c0.03-0.07,0.09-0.1,0.18-0.1h1.75
		C47.93,91.19,47.99,91.22,48.02,91.29z"/>
	<path class="st1" d="M53.4,86.76c0.56,0.46,1,1.08,1.34,1.88c0.33,0.8,0.49,1.69,0.47,2.67c-0.53,0.24-1.1,0.42-1.71,0.55
		c-0.61,0.13-1.16,0.19-1.65,0.19c-0.79,0-1.57-0.19-2.33-0.56c-0.36,0.38-0.86,0.56-1.51,0.56h-0.17c-0.09,0-0.15-0.03-0.18-0.1
		s-0.05-0.18-0.05-0.32s0.01-0.25,0.05-0.32c0.03-0.07,0.09-0.1,0.18-0.1h0.17c0.34,0,0.61-0.08,0.81-0.25s0.32-0.41,0.37-0.73
		l0.04-0.3c0.06-0.6,0.16-1.17,0.29-1.7s0.37-1.02,0.72-1.46c0.34-0.45,0.82-0.67,1.43-0.67C52.26,86.08,52.85,86.3,53.4,86.76z
		 M51.86,91.19c0.37,0,0.77-0.04,1.2-0.11c0.43-0.08,0.84-0.19,1.24-0.33c-0.05-0.67-0.2-1.3-0.46-1.88
		c-0.26-0.58-0.58-1.05-0.96-1.4c-0.38-0.35-0.77-0.53-1.18-0.53c-0.38,0-0.69,0.16-0.91,0.49c-0.22,0.33-0.37,0.7-0.46,1.11
		s-0.15,0.88-0.21,1.4c0-0.02-0.02,0.11-0.05,0.4c-0.02,0.15-0.06,0.29-0.11,0.42C50.6,91.04,51.22,91.19,51.86,91.19z"/>
	<path class="st1" d="M59.04,91.29c0.03,0.07,0.05,0.18,0.05,0.32c0,0.15-0.02,0.26-0.05,0.32c-0.03,0.07-0.09,0.1-0.18,0.1h-2.14
		v-8.46h0.9v7.61h1.23C58.95,91.19,59.01,91.22,59.04,91.29z"/>
	<path class="st1" d="M67.1,91.29c0.03,0.07,0.05,0.18,0.05,0.32c0,0.15-0.02,0.26-0.05,0.32c-0.03,0.07-0.09,0.1-0.19,0.1h-1.95
		c-0.87,0-1.66-0.15-2.37-0.46c-0.82,0.31-1.54,0.46-2.13,0.46h-1.61c-0.09,0-0.15-0.03-0.18-0.1s-0.05-0.18-0.05-0.32
		s0.01-0.25,0.05-0.32c0.03-0.07,0.09-0.1,0.18-0.1h1.61c0.34,0,0.73-0.05,1.14-0.16c-0.5-0.36-0.91-0.8-1.24-1.33
		s-0.55-1.11-0.69-1.76l0.76-1.34c0.77-0.29,1.55-0.43,2.35-0.43c0.65,0,1.23,0.09,1.73,0.26c0.5,0.17,0.88,0.41,1.16,0.72
		c0.28,0.31,0.42,0.67,0.42,1.07c0,0.52-0.22,1.03-0.66,1.53s-1,0.93-1.7,1.31c0.38,0.09,0.79,0.14,1.22,0.14h1.95
		C67.01,91.19,67.07,91.22,67.1,91.29z M61.24,89.39c0.37,0.54,0.84,0.96,1.42,1.26c0.71-0.32,1.31-0.69,1.8-1.14
		c0.49-0.44,0.74-0.87,0.74-1.28c0-0.38-0.22-0.67-0.66-0.89c-0.44-0.21-1.02-0.32-1.74-0.32c-0.42,0-0.82,0.04-1.19,0.12
		s-0.74,0.2-1.1,0.36C60.62,88.22,60.86,88.85,61.24,89.39z"/>
	<path class="st1" d="M68.78,83.59v8.46h-1.87c-0.09,0-0.15-0.03-0.18-0.1s-0.05-0.18-0.05-0.32s0.01-0.25,0.05-0.32
		c0.03-0.07,0.09-0.1,0.18-0.1h0.97V83.6h0.9V83.59z"/>
	<path class="st1" d="M70.79,83.59h0.9v8.46h-0.9V83.59z"/>
	<path class="st1" d="M84.73,86.63v5.41l-6.19,0.01c-0.78,0-1.38-0.21-1.8-0.62c-0.42-0.41-0.64-0.99-0.64-1.72
		c0-0.49,0.1-0.92,0.3-1.29c0.2-0.36,0.48-0.69,0.86-0.99l0.73,0.52c-0.34,0.27-0.59,0.54-0.75,0.82S77,89.35,77,89.69
		c0,0.46,0.14,0.82,0.41,1.09c0.28,0.27,0.67,0.4,1.19,0.4h5.22v-4.56h0.91V86.63z M79.48,85.64c-0.11-0.11-0.16-0.25-0.16-0.42
		s0.05-0.31,0.16-0.41c0.11-0.11,0.24-0.16,0.4-0.16s0.29,0.06,0.4,0.16s0.16,0.25,0.16,0.41c0,0.17-0.05,0.31-0.16,0.42
		s-0.24,0.17-0.4,0.17S79.59,85.75,79.48,85.64z M80.95,85.64c-0.11-0.11-0.16-0.25-0.16-0.42s0.05-0.31,0.16-0.41
		s0.24-0.16,0.4-0.16s0.29,0.06,0.4,0.16c0.11,0.11,0.16,0.25,0.16,0.41c0,0.17-0.05,0.31-0.16,0.42s-0.24,0.17-0.4,0.17
		C81.19,85.81,81.06,85.75,80.95,85.64z"/>
	<path class="st1" d="M91.75,83.59v8.46h-5.7V91.2h1.56v-5.98h0.9v5.98h2.34v-7.61H91.75z"/>
	<path class="st1" d="M98.55,86.84v5.34c0,0.77-0.2,1.37-0.59,1.79c-0.4,0.42-0.95,0.64-1.66,0.65l-0.15-0.87
		c0.52,0.02,0.89-0.09,1.14-0.35c0.24-0.25,0.36-0.66,0.36-1.22V91.8c-0.5,0.16-0.98,0.24-1.45,0.24c-0.57,0-1.09-0.13-1.57-0.39
		s-0.86-0.62-1.14-1.07s-0.42-0.94-0.42-1.48s0.14-1.03,0.42-1.48c0.28-0.45,0.66-0.8,1.14-1.06c0.48-0.26,1-0.39,1.57-0.39
		c0.36,0,0.74,0.06,1.14,0.17s0.78,0.27,1.14,0.47L98.55,86.84z M97.65,90.89v-3.52c-0.54-0.23-1.02-0.35-1.43-0.35
		c-0.43,0-0.82,0.1-1.16,0.28c-0.34,0.19-0.61,0.44-0.8,0.76s-0.29,0.66-0.29,1.04s0.1,0.73,0.29,1.04s0.46,0.57,0.8,0.76
		c0.34,0.19,0.73,0.28,1.16,0.28C96.64,91.19,97.12,91.09,97.65,90.89z"/>
	<path class="st1" d="M102.64,91.29c0.03,0.07,0.05,0.18,0.05,0.32c0,0.15-0.02,0.26-0.05,0.32c-0.03,0.07-0.09,0.1-0.18,0.1h-2.14
		v-8.46h0.9v7.61h1.23C102.55,91.19,102.61,91.22,102.64,91.29z"/>
	<path class="st1" d="M104.4,91.29c0.03,0.07,0.05,0.18,0.05,0.32c0,0.15-0.02,0.26-0.05,0.32c-0.03,0.07-0.09,0.1-0.19,0.1h-1.75
		c-0.09,0-0.15-0.03-0.18-0.1s-0.05-0.18-0.05-0.32s0.01-0.25,0.05-0.32c0.03-0.07,0.09-0.1,0.18-0.1h1.75
		C104.31,91.19,104.37,91.22,104.4,91.29z"/>
	<path class="st1" d="M106.15,91.29c0.03,0.07,0.05,0.18,0.05,0.32c0,0.15-0.02,0.26-0.05,0.32c-0.03,0.07-0.09,0.1-0.19,0.1h-1.75
		c-0.09,0-0.15-0.03-0.18-0.1s-0.05-0.18-0.05-0.32s0.01-0.25,0.05-0.32c0.03-0.07,0.09-0.1,0.18-0.1h1.75
		C106.06,91.19,106.12,91.22,106.15,91.29z"/>
	<path class="st1" d="M107.91,91.29c0.03,0.07,0.05,0.18,0.05,0.32c0,0.15-0.02,0.26-0.05,0.32c-0.03,0.07-0.09,0.1-0.19,0.1h-1.75
		c-0.09,0-0.15-0.03-0.18-0.1s-0.05-0.18-0.05-0.32s0.01-0.25,0.05-0.32c0.03-0.07,0.09-0.1,0.18-0.1h1.75
		C107.82,91.19,107.88,91.22,107.91,91.29z"/>
	<path class="st1" d="M109.66,91.29c0.03,0.07,0.05,0.18,0.05,0.32c0,0.15-0.02,0.26-0.05,0.32c-0.03,0.07-0.09,0.1-0.19,0.1h-1.75
		c-0.09,0-0.15-0.03-0.18-0.1s-0.05-0.18-0.05-0.32s0.01-0.25,0.05-0.32c0.03-0.07,0.09-0.1,0.18-0.1h1.75
		C109.57,91.19,109.63,91.22,109.66,91.29z"/>
	<path class="st1" d="M111.42,91.29c0.03,0.07,0.05,0.18,0.05,0.32c0,0.15-0.02,0.26-0.05,0.32c-0.03,0.07-0.09,0.1-0.19,0.1h-1.75
		c-0.09,0-0.15-0.03-0.18-0.1s-0.05-0.18-0.05-0.32s0.01-0.25,0.05-0.32c0.03-0.07,0.09-0.1,0.18-0.1h1.75
		C111.32,91.19,111.39,91.22,111.42,91.29z"/>
	<path class="st1" d="M113.17,91.29c0.03,0.07,0.05,0.18,0.05,0.32c0,0.15-0.02,0.26-0.05,0.32c-0.03,0.07-0.09,0.1-0.19,0.1h-1.75
		c-0.09,0-0.15-0.03-0.18-0.1S111,91.75,111,91.61s0.01-0.25,0.05-0.32c0.03-0.07,0.09-0.1,0.18-0.1h1.75
		C113.08,91.19,113.14,91.22,113.17,91.29z"/>
	<path class="st1" d="M114.93,91.29c0.03,0.07,0.05,0.18,0.05,0.32c0,0.15-0.02,0.26-0.05,0.32c-0.03,0.07-0.09,0.1-0.19,0.1h-1.75
		c-0.09,0-0.15-0.03-0.18-0.1s-0.05-0.18-0.05-0.32s0.01-0.25,0.05-0.32c0.03-0.07,0.09-0.1,0.18-0.1h1.75
		C114.83,91.19,114.89,91.22,114.93,91.29z"/>
	<path class="st1" d="M116.68,91.29c0.03,0.07,0.05,0.18,0.05,0.32c0,0.15-0.02,0.26-0.05,0.32c-0.03,0.07-0.09,0.1-0.19,0.1h-1.75
		c-0.09,0-0.15-0.03-0.18-0.1s-0.05-0.18-0.05-0.32s0.01-0.25,0.05-0.32c0.03-0.07,0.09-0.1,0.18-0.1h1.75
		C116.59,91.19,116.65,91.22,116.68,91.29z"/>
	<path class="st1" d="M118.43,91.29c0.03,0.07,0.05,0.18,0.05,0.32c0,0.15-0.02,0.26-0.05,0.32c-0.03,0.07-0.09,0.1-0.19,0.1h-1.75
		c-0.09,0-0.15-0.03-0.18-0.1s-0.05-0.18-0.05-0.32s0.01-0.25,0.05-0.32c0.03-0.07,0.09-0.1,0.18-0.1h1.75
		C118.34,91.19,118.4,91.22,118.43,91.29z"/>
	<path class="st1" d="M120.19,91.29c0.03,0.07,0.05,0.18,0.05,0.32c0,0.15-0.02,0.26-0.05,0.32c-0.03,0.07-0.09,0.1-0.19,0.1h-1.75
		c-0.09,0-0.15-0.03-0.18-0.1s-0.05-0.18-0.05-0.32s0.01-0.25,0.05-0.32c0.03-0.07,0.09-0.1,0.18-0.1H120
		C120.09,91.19,120.16,91.22,120.19,91.29z"/>
	<path class="st1" d="M127.96,91.29c0.03,0.07,0.05,0.18,0.05,0.32c0,0.15-0.02,0.26-0.05,0.32c-0.03,0.07-0.09,0.1-0.18,0.1H120
		c-0.09,0-0.15-0.03-0.18-0.1s-0.05-0.18-0.05-0.32s0.01-0.25,0.05-0.32c0.03-0.07,0.09-0.1,0.18-0.1h1.78
		c-0.52-0.55-0.77-1.21-0.77-1.97c0-0.58,0.14-1.1,0.43-1.56s0.67-0.83,1.17-1.09c0.49-0.27,1.03-0.4,1.62-0.4
		c0.68,0,1.43,0.19,2.25,0.57v4.45h1.3C127.86,91.19,127.92,91.22,127.96,91.29z M122.32,90.46c0.27,0.35,0.64,0.6,1.1,0.73h2.15
		v-3.9c-0.49-0.18-0.94-0.27-1.35-0.27c-0.44,0-0.83,0.1-1.19,0.29s-0.63,0.45-0.82,0.78c-0.2,0.33-0.3,0.7-0.3,1.11
		C121.91,89.69,122.04,90.11,122.32,90.46z M123.1,85.04c-0.11-0.11-0.16-0.25-0.16-0.42s0.05-0.31,0.16-0.41
		c0.11-0.11,0.24-0.16,0.4-0.16s0.29,0.05,0.4,0.16s0.16,0.25,0.16,0.41c0,0.17-0.05,0.31-0.16,0.42s-0.24,0.17-0.4,0.17
		S123.2,85.15,123.1,85.04z M124.57,85.04c-0.11-0.11-0.16-0.25-0.16-0.42s0.05-0.31,0.16-0.41c0.11-0.11,0.24-0.16,0.4-0.16
		s0.29,0.05,0.4,0.16s0.16,0.25,0.16,0.41c0,0.17-0.05,0.31-0.16,0.42s-0.24,0.17-0.4,0.17C124.8,85.21,124.67,85.15,124.57,85.04z"
		/>
	<path class="st1" d="M136.97,91.29c0.03,0.07,0.05,0.18,0.05,0.32c0,0.15-0.01,0.26-0.05,0.32s-0.09,0.1-0.18,0.1h-0.14
		c-0.76,0-1.35-0.21-1.77-0.62c-0.51,0.2-1.04,0.35-1.59,0.46s-1.05,0.16-1.5,0.16c-0.79,0-1.57-0.19-2.33-0.56
		c-0.36,0.38-0.86,0.56-1.51,0.56h-0.17c-0.09,0-0.15-0.03-0.18-0.1s-0.05-0.18-0.05-0.32s0.01-0.25,0.05-0.32
		c0.03-0.07,0.09-0.1,0.18-0.1h0.17c0.34,0,0.61-0.08,0.81-0.25c0.2-0.17,0.32-0.41,0.37-0.73l0.04-0.3c0.06-0.6,0.16-1.17,0.29-1.7
		c0.13-0.53,0.37-1.02,0.72-1.46c0.34-0.45,0.82-0.67,1.43-0.67c0.56,0,1.1,0.19,1.62,0.58c0.52,0.39,0.95,0.93,1.3,1.61
		c0.35,0.69,0.55,1.46,0.61,2.33c0.29,0.39,0.72,0.59,1.3,0.59h0.36C136.87,91.19,136.94,91.22,136.97,91.29z M131.8,91.19
		c0.37,0,0.77-0.04,1.2-0.11c0.43-0.08,0.84-0.19,1.24-0.33c-0.05-0.67-0.2-1.3-0.46-1.88c-0.26-0.58-0.58-1.05-0.96-1.4
		s-0.77-0.53-1.18-0.53c-0.38,0-0.69,0.16-0.91,0.49c-0.22,0.33-0.37,0.7-0.46,1.11c-0.09,0.41-0.15,0.88-0.21,1.4
		c0-0.02-0.02,0.11-0.05,0.4c-0.02,0.15-0.06,0.29-0.11,0.42C130.53,91.04,131.16,91.19,131.8,91.19z"/>
	<path class="st1" d="M140.05,91.29c0.03,0.07,0.05,0.18,0.05,0.32c0,0.15-0.02,0.26-0.05,0.32c-0.03,0.07-0.09,0.1-0.18,0.1h-3.08
		c-0.09,0-0.15-0.03-0.18-0.1s-0.05-0.18-0.05-0.32s0.01-0.25,0.05-0.32c0.03-0.07,0.09-0.1,0.18-0.1h0.97v-7.61h0.9v7.61h1.21
		C139.96,91.19,140.02,91.22,140.05,91.29z"/>
	<path class="st1" d="M141.74,83.59v8.46h-1.87c-0.09,0-0.15-0.03-0.18-0.1s-0.05-0.18-0.05-0.32s0.01-0.25,0.05-0.32
		c0.03-0.07,0.09-0.1,0.18-0.1h0.97V83.6h0.9V83.59z"/>
</g>
<g>
	<g>
		<g>
			<path id="SVGID_1_" class="st2" d="M208.97,79.07l6.54,3.73v11.36l-0.02,0.01v3.04l0.02-0.01v1.45h-1.03V83.48L210,80.92v17.73
				h-1.03V79.07z M186.76,82.69V54.36l-3.71,2.12v9.08l-4,2.28v20.74L186.76,82.69z M204.72,69.15l10.8-6.24V50.18l-12.69-6.92
				l-12.69,6.92v2.05l12.69-6.92v1.48l-11.01,6.11v-0.03l-1.68,0.93v2.6l12.69-7.06v1.64l-12.69,7.06v2.57l12.69-7.06v1.64
				l-12.69,7.06v2.57l12.69-7.06v1.64l-12.69,7.06v2.57l12.69-7.06v1.64l-12.69,7.06v9.46l1.26-0.96l13.32,10.17V69.15z
				 M193.86,84.45l-2.46-1.88L179.05,92v-1.36l12.35-9.42l13.32,10.17v1.36L193.86,84.45z M191.6,91.89v2.2h2.19v-2.2H191.6z
				 M189.01,91.89v2.2h2.19v-2.2H189.01z M191.6,94.49v2.19h2.19v-2.19H191.6z M189.01,94.49v2.19h2.19v-2.19H189.01z M179.05,98.64
				v-4.58l12.35-9.42l13.32,10.17v3.84L179.05,98.64L179.05,98.64z M218.15,63.3l-11.81,6.74v20.51l0.03,0.02v5.48l-0.03-0.02v2.61
				h1.86V71.27l8.1-4.62v31.99h1.86V63.3H218.15z M186.11,19.49c-19.69,0-33.15,15.87-33.15,40.08c0,19.42,8.79,33.7,23.14,37.84
				v-11.2c-7.15-4.94-10.89-15.6-10.89-26.94c0-15.07,6.33-30.23,20.49-30.23c7.16,0,12.33,4.08,15.65,10.05l15.82,8.63
				C213.98,31.1,203.06,19.49,186.11,19.49z"/>
		</g>
	</g>
	<rect x="161.69" y="54.65" class="st2" width="18.1" height="9.71"/>
	
		<rect x="177.13" y="11.78" transform="matrix(0.7071 -0.7071 0.7071 0.7071 40.4889 136.0951)" class="st3" width="14.79" height="14.79"/>
</g>
</svg>
